<svg class="svg-standalone-icon" width="100%" viewBox="219.41962933414067 114.99999999999999 111.16074133171867 132.12235485448423"><g data-paper-data="{&quot;isIcon&quot;:&quot;true&quot;,&quot;selectedEffects&quot;:{&quot;container&quot;:&quot;&quot;,&quot;transformation&quot;:&quot;&quot;,&quot;pattern&quot;:&quot;&quot;},&quot;fillRule&quot;:&quot;evenodd&quot;,&quot;fillRuleOriginal&quot;:&quot;evenodd&quot;,&quot;iconType&quot;:&quot;icon&quot;,&quot;rawIconId&quot;:&quot;98347&quot;,&quot;source&quot;:&quot;noun&quot;,&quot;combineTerms&quot;:&quot;cart&quot;,&quot;iconStyle&quot;:&quot;standalone&quot;,&quot;bounds&quot;:{&quot;x&quot;:219.41962933414067,&quot;y&quot;:114.99999999999999,&quot;width&quot;:111.16074133171867,&quot;height&quot;:132.12235485448423},&quot;suitableAsStandaloneIcon&quot;:true}" fill-rule="evenodd"><path d="M269.44877,115.00001h-34.87896c-10.04076,0 -15.15019,5.10944 -15.15019,15.15019v65.0117c0,10.04076 5.10944,15.15019 15.15019,15.15019h80.86037c10.04076,0 15.15019,-5.10944 15.15019,-15.15019v-25.54368c-8.27358,7.5751 -18.14321,11.4482 -29.58792,11.4482c-11.63331,0 -21.67406,-3.87311 -29.95113,-11.62283c-8.28755,-7.7567 -12.33179,-17.09198 -12.33179,-28.01283c0,-10.21887 3.52736,-19.0233 10.73924,-26.43076zM320.89235,122.7567c-5.28056,-4.93481 -11.62283,-7.5751 -19.03028,-7.7567h-1.58207c-7.39349,0.18161 -13.73924,2.64377 -19.19792,7.7567c-5.45867,5.11292 -8.27358,11.4517 -8.27358,18.67057c0,7.21887 2.81491,13.56113 8.27358,18.67057c5.45867,5.10944 12.15368,7.7567 19.91038,7.7567c7.74622,0 14.43773,-2.64377 19.89641,-7.7567c5.46217,-5.10944 8.28755,-11.4517 8.28755,-18.67057c0.00349,-7.21887 -2.82189,-13.56113 -8.28406,-18.67057zM259.94236,219.46925c-3.16415,-3.16415 -7.04424,-4.7567 -11.4517,-4.7567c-4.39698,0 -8.27708,1.59255 -11.44122,4.7567c-3.17812,3.17113 -4.76019,7.04774 -4.76019,11.45519c0,4.39698 1.58207,8.27358 4.76019,11.4517c3.16415,3.16415 7.04424,4.74622 11.44122,4.74622c4.40746,0 8.28755,-1.58207 11.4517,-4.74622c3.17462,-3.17812 4.7567,-7.05821 4.7567,-11.4517c0,-4.41094 -1.58207,-8.28406 -4.7567,-11.45519zM312.78641,219.46925c-3.16764,-3.16415 -7.04774,-4.7567 -11.44122,-4.7567c-4.41094,0 -8.28755,1.59255 -11.45519,4.7567c-3.17462,3.17113 -4.7567,7.04774 -4.7567,11.45519c0,4.39698 1.58207,8.27358 4.7567,11.4517c3.16764,3.16415 7.04774,4.74622 11.45519,4.74622c4.39698,0 8.27358,-1.58207 11.44122,-4.74622c3.17462,-3.17812 4.7567,-7.05821 4.7567,-11.4517c0.00349,-4.41094 -1.57858,-8.28406 -4.7567,-11.45519z" data-paper-data="{&quot;isPathIcon&quot;:true}" style="fill: rgb(242, 169, 0);"></path></g></svg>